<?xml version="1.0" encoding="iso-8859-1"?>
<!-- Generator: Adobe Illustrator 18.1.1, SVG Export Plug-In . SVG Version: 6.00 Build 0)  -->
<svg version="1.1" id="Capa_1" xmlns="http://www.w3.org/2000/svg" xmlns:xlink="http://www.w3.org/1999/xlink" x="0px" y="0px"
	 viewBox="0 0 472 472" style="enable-background:new 0 0 472 472;" xml:space="preserve">
<g>
	<path style="fill:#010002;" d="M400,185.5h-3c-0.667-2-1.667-3.333-3-4l-118-127c0.667-2.667,1-5.333,1-8c0-10-3.167-18.5-9.5-25.5
		S253.333,10.5,244,10.5h-37c-8.667,0-16.167,3.5-22.5,10.5S175,36.5,175,46.5v8l-118,127c-0.667,0.667-1.667,2-3,4H0v71h21v154
		c0,14,5,26,15,36s22,15,36,15h328c14,0,26-5,36-15s15-22,15-36v-154h21v-71H400z M113,400.5c0,5.333-2,10-6,14s-8.833,6-14.5,6
		s-10.5-2-14.5-6s-6-8.667-6-14v-123c0-6,2-11,6-15s8.833-6,14.5-6s10.5,2,14.5,6s6,9,6,15V400.5z M205,400.5c0,5.333-2,10-6,14
		s-8.833,6-14.5,6s-10.5-2-14.5-6s-6-8.667-6-14v-123c0-6,2-11,6-15s8.833-6,14.5-6s10.5,2,14.5,6s6,9,6,15V400.5z M308,400.5
		c0,5.333-2,10-6,14s-8.833,6-14.5,6s-10.5-2-14.5-6s-6-8.667-6-14v-123c0-6,2-11,6-15s8.833-6,14.5-6s10.5,2,14.5,6s6,9,6,15V400.5
		z M110,185.5l95-103h1.5h0.5h37h1.5h0.5l96,103H110z M400,400.5c0,5.333-2,10-6,14s-8.833,6-14.5,6s-10.5-2-14.5-6s-6-8.667-6-14
		v-123c0-6,2-11,6-15s8.833-6,14.5-6s10.5,2,14.5,6s6,9,6,15V400.5z"/>
</g>
<g>
</g>
<g>
</g>
<g>
</g>
<g>
</g>
<g>
</g>
<g>
</g>
<g>
</g>
<g>
</g>
<g>
</g>
<g>
</g>
<g>
</g>
<g>
</g>
<g>
</g>
<g>
</g>
<g>
</g>
</svg>
